<svg width="580" height="30" viewBox="0 0 580 30" fill="none" xmlns="http://www.w3.org/2000/svg">
<g clip-path="url(#clip0_156_30)">
<path d="M20 0V30" stroke="#041B2F" stroke-opacity="0.6" stroke-width="4" stroke-linecap="round"/>
<path d="M40.0001 5V25" stroke="#B3B3B3" stroke-opacity="0.6" stroke-width="4" stroke-linecap="round"/>
<path d="M60.0002 0V30" stroke="#041B2F" stroke-opacity="0.6" stroke-width="4" stroke-linecap="round"/>
<path d="M80.0002 5V25" stroke="#B3B3B3" stroke-opacity="0.6" stroke-width="4" stroke-linecap="round"/>
<path d="M100 0V30" stroke="#041B2F" stroke-opacity="0.6" stroke-width="4" stroke-linecap="round"/>
<path d="M120 5V25" stroke="#B3B3B3" stroke-opacity="0.6" stroke-width="4" stroke-linecap="round"/>
<path d="M140.001 0V30" stroke="#041B2F" stroke-opacity="0.6" stroke-width="4" stroke-linecap="round"/>
<path d="M160.001 5V25" stroke="#B3B3B3" stroke-opacity="0.6" stroke-width="4" stroke-linecap="round"/>
<path d="M180.001 0V30" stroke="#041B2F" stroke-opacity="0.6" stroke-width="4" stroke-linecap="round"/>
<path d="M200.001 5V25" stroke="#B3B3B3" stroke-opacity="0.6" stroke-width="4" stroke-linecap="round"/>
<path d="M220.001 0V30" stroke="#041B2F" stroke-opacity="0.6" stroke-width="4" stroke-linecap="round"/>
<path d="M240.001 5V25" stroke="#B3B3B3" stroke-opacity="0.6" stroke-width="4" stroke-linecap="round"/>
<path d="M260.001 0V30" stroke="#041B2F" stroke-opacity="0.6" stroke-width="4" stroke-linecap="round"/>
<path d="M280.001 5V25" stroke="#B3B3B3" stroke-opacity="0.6" stroke-width="4" stroke-linecap="round"/>
<path d="M300.001 0V30" stroke="#041B2F" stroke-opacity="0.6" stroke-width="4" stroke-linecap="round"/>
<path d="M320.001 5V25" stroke="#B3B3B3" stroke-opacity="0.6" stroke-width="4" stroke-linecap="round"/>
<path d="M340.001 0V30" stroke="#041B2F" stroke-opacity="0.6" stroke-width="4" stroke-linecap="round"/>
<path d="M360.002 5V25" stroke="#B3B3B3" stroke-opacity="0.6" stroke-width="4" stroke-linecap="round"/>
<path d="M380.002 0V30" stroke="#041B2F" stroke-opacity="0.6" stroke-width="4" stroke-linecap="round"/>
<path d="M400.002 5V25" stroke="#B3B3B3" stroke-opacity="0.6" stroke-width="4" stroke-linecap="round"/>
<path d="M420.002 0V30" stroke="#041B2F" stroke-opacity="0.6" stroke-width="4" stroke-linecap="round"/>
<path d="M440.002 5V25" stroke="#B3B3B3" stroke-opacity="0.6" stroke-width="4" stroke-linecap="round"/>
<path d="M460.002 0V30" stroke="#041B2F" stroke-opacity="0.6" stroke-width="4" stroke-linecap="round"/>
<path d="M480.002 5V25" stroke="#B3B3B3" stroke-opacity="0.6" stroke-width="4" stroke-linecap="round"/>
<path d="M500.002 0V30" stroke="#041B2F" stroke-opacity="0.6" stroke-width="4" stroke-linecap="round"/>
<path d="M520.002 5V25" stroke="#B3B3B3" stroke-opacity="0.6" stroke-width="4" stroke-linecap="round"/>
<path d="M540.002 0V30" stroke="#041B2F" stroke-opacity="0.6" stroke-width="4" stroke-linecap="round"/>
<path d="M560.003 5V25" stroke="#B3B3B3" stroke-opacity="0.6" stroke-width="4" stroke-linecap="round"/>
</g>
<defs>
<clipPath id="clip0_156_30">
<rect width="580.003" height="30" fill="white"/>
</clipPath>
</defs>
</svg>
