<svg width="865" height="137" viewBox="0 0 865 137" fill="none" xmlns="http://www.w3.org/2000/svg">
<path d="M16.6172 127.375C16.6172 126.578 16.5234 125.875 16.3359 125.266C16.1484 124.641 15.8203 124.078 15.3516 123.578C14.8828 123.078 14.2266 122.602 13.3828 122.148C12.539 121.695 11.4687 121.234 10.1719 120.766C8.76562 120.266 7.49219 119.711 6.35156 119.102C5.21093 118.477 4.23437 117.766 3.42187 116.969C2.625 116.172 2.00781 115.258 1.57031 114.227C1.13281 113.195 0.914062 112.016 0.914062 110.688C0.914062 109.359 1.14062 108.133 1.59375 107.008C2.0625 105.883 2.71875 104.906 3.5625 104.078C4.42187 103.234 5.45312 102.578 6.65625 102.109C7.85937 101.641 9.20312 101.406 10.6875 101.406C12.9062 101.406 14.7734 101.898 16.289 102.883C17.8203 103.852 18.9766 105.125 19.7578 106.703C20.539 108.266 20.9297 109.937 20.9297 111.719H16.6172C16.6172 110.437 16.4062 109.305 15.9844 108.32C15.5781 107.32 14.9375 106.539 14.0625 105.977C13.2031 105.398 12.0781 105.109 10.6875 105.109C9.4375 105.109 8.40625 105.352 7.59375 105.836C6.79687 106.32 6.20312 106.977 5.8125 107.805C5.4375 108.633 5.25 109.578 5.25 110.641C5.25 111.359 5.375 112.016 5.625 112.609C5.875 113.187 6.25781 113.727 6.77343 114.227C7.30469 114.727 7.96093 115.187 8.74219 115.609C9.53906 116.031 10.4766 116.438 11.5547 116.828C13.2266 117.375 14.6562 117.984 15.8437 118.656C17.0312 119.328 18 120.086 18.75 120.93C19.5 121.758 20.0469 122.703 20.3906 123.766C20.75 124.813 20.9297 126 20.9297 127.328C20.9297 128.719 20.6953 129.977 20.2266 131.102C19.7734 132.227 19.1094 133.188 18.2344 133.984C17.3594 134.781 16.3047 135.398 15.0703 135.836C13.8359 136.258 12.4453 136.469 10.8984 136.469C9.55469 136.469 8.23437 136.25 6.9375 135.812C5.65625 135.375 4.49219 134.719 3.44531 133.844C2.39843 132.969 1.5625 131.891 0.9375 130.609C0.3125 129.313 0 127.812 0 126.109H4.3125C4.3125 127.281 4.48437 128.289 4.82812 129.133C5.17187 129.961 5.64843 130.648 6.25781 131.195C6.86719 131.742 7.5625 132.148 8.34375 132.414C9.14062 132.664 9.99219 132.789 10.8984 132.789C12.1484 132.789 13.1953 132.57 14.039 132.133C14.8984 131.695 15.539 131.07 15.9609 130.258C16.3984 129.445 16.6172 128.484 16.6172 127.375ZM35.0859 136.469C33.5703 136.469 32.2031 136.242 30.9844 135.789C29.7656 135.336 28.7266 134.648 27.8672 133.727C27.0078 132.789 26.3516 131.609 25.8984 130.188C25.4453 128.766 25.2187 127.086 25.2187 125.148V122.289C25.2187 120.055 25.4766 118.164 25.9922 116.617C26.5234 115.07 27.2344 113.828 28.125 112.891C29.0156 111.938 30.0234 111.25 31.1484 110.828C32.2734 110.391 33.4297 110.172 34.6172 110.172C36.2109 110.172 37.5703 110.43 38.6953 110.945C39.8203 111.461 40.7344 112.227 41.4375 113.242C42.1406 114.258 42.6562 115.508 42.9844 116.992C43.3281 118.477 43.5 120.188 43.5 122.125V124.539H27.6562V121H39.3516V120.414C39.289 119.102 39.1094 117.945 38.8125 116.945C38.5312 115.945 38.0625 115.164 37.4062 114.602C36.75 114.023 35.8203 113.734 34.6172 113.734C33.8516 113.734 33.1406 113.867 32.4844 114.133C31.8437 114.383 31.289 114.828 30.8203 115.469C30.3672 116.094 30.0078 116.961 29.7422 118.07C29.4922 119.18 29.3672 120.586 29.3672 122.289V125.148C29.3672 126.508 29.4922 127.68 29.7422 128.664C30.0078 129.633 30.3906 130.437 30.8906 131.078C31.4062 131.703 32.0312 132.172 32.7656 132.484C33.5156 132.781 34.3672 132.93 35.3203 132.93C36.7109 132.93 37.8594 132.664 38.7656 132.133C39.6719 131.586 40.4609 130.891 41.1328 130.047L43.3125 132.648C42.8594 133.289 42.2656 133.906 41.5312 134.5C40.8125 135.078 39.9219 135.555 38.8594 135.93C37.8125 136.289 36.5547 136.469 35.0859 136.469ZM52.664 114.625V136H48.5156V110.641H52.5234L52.664 114.625ZM58.9687 110.5L58.9922 114.531C58.6484 114.453 58.3359 114.406 58.0547 114.391C57.789 114.359 57.4766 114.344 57.1172 114.344C56.3359 114.344 55.6484 114.5 55.0547 114.812C54.4766 115.125 53.9766 115.562 53.5547 116.125C53.1328 116.688 52.7969 117.359 52.5469 118.141C52.2969 118.906 52.125 119.75 52.0312 120.672L50.9531 121.375C50.9531 119.844 51.0703 118.406 51.3047 117.062C51.5547 115.719 51.9375 114.531 52.4531 113.5C52.9687 112.453 53.625 111.641 54.4219 111.062C55.2344 110.469 56.2031 110.172 57.3281 110.172C57.5781 110.172 57.8828 110.211 58.2422 110.289C58.6172 110.352 58.8594 110.422 58.9687 110.5ZM70.125 132.086L75.5625 110.641H79.7812L72.2578 136H69.5156L70.125 132.086ZM65.7422 110.641L71.414 132.203L71.8594 136H69.1406L61.5234 110.641H65.7422ZM88.5469 110.641V136H84.4219V110.641H88.5469ZM84.1875 103.914C84.1875 103.211 84.3828 102.617 84.7734 102.133C85.164 101.648 85.75 101.406 86.5312 101.406C87.3125 101.406 87.8984 101.648 88.289 102.133C88.6953 102.617 88.8984 103.211 88.8984 103.914C88.8984 104.586 88.6953 105.164 88.289 105.648C87.8984 106.117 87.3125 106.352 86.5312 106.352C85.75 106.352 85.164 106.117 84.7734 105.648C84.3828 105.164 84.1875 104.586 84.1875 103.914ZM103.899 132.93C104.727 132.93 105.477 132.766 106.149 132.438C106.836 132.094 107.399 131.562 107.836 130.844C108.274 130.109 108.524 129.156 108.586 127.984H112.477C112.414 129.672 111.985 131.156 111.188 132.438C110.406 133.703 109.375 134.695 108.094 135.414C106.828 136.117 105.43 136.469 103.899 136.469C102.258 136.469 100.828 136.203 99.6094 135.672C98.4062 135.141 97.4062 134.375 96.6094 133.375C95.8281 132.359 95.2422 131.133 94.8516 129.695C94.4609 128.242 94.2656 126.594 94.2656 124.75V121.891C94.2656 120.047 94.4609 118.406 94.8516 116.969C95.2422 115.516 95.8281 114.289 96.6094 113.289C97.4062 112.273 98.4062 111.5 99.6094 110.969C100.828 110.437 102.258 110.172 103.899 110.172C105.617 110.172 107.102 110.539 108.352 111.273C109.617 111.992 110.602 113.039 111.305 114.414C112.024 115.773 112.414 117.422 112.477 119.359H108.586C108.524 118.109 108.297 117.07 107.906 116.242C107.516 115.398 106.985 114.773 106.313 114.367C105.641 113.945 104.836 113.734 103.899 113.734C102.805 113.734 101.899 113.93 101.18 114.32C100.477 114.695 99.9219 115.242 99.5156 115.961C99.1094 116.68 98.8203 117.539 98.6484 118.539C98.4922 119.539 98.414 120.656 98.414 121.891V124.75C98.414 125.984 98.4922 127.109 98.6484 128.125C98.8203 129.125 99.1016 129.984 99.4922 130.703C99.8984 131.422 100.461 131.977 101.18 132.367C101.899 132.742 102.805 132.93 103.899 132.93ZM121.735 110.641V136H117.61V110.641H121.735ZM117.375 103.914C117.375 103.211 117.57 102.617 117.961 102.133C118.352 101.648 118.938 101.406 119.719 101.406C120.5 101.406 121.086 101.648 121.477 102.133C121.883 102.617 122.086 103.211 122.086 103.914C122.086 104.586 121.883 105.164 121.477 105.648C121.086 106.117 120.5 106.352 119.719 106.352C118.938 106.352 118.352 106.117 117.961 105.648C117.57 105.164 117.375 104.586 117.375 103.914ZM127.43 124.539V122.125C127.43 120.156 127.68 118.43 128.18 116.945C128.68 115.445 129.375 114.195 130.266 113.195C131.156 112.195 132.196 111.445 133.383 110.945C134.57 110.43 135.844 110.172 137.203 110.172C138.594 110.172 139.883 110.43 141.07 110.945C142.258 111.445 143.297 112.195 144.188 113.195C145.094 114.195 145.797 115.445 146.297 116.945C146.797 118.43 147.047 120.156 147.047 122.125V124.539C147.047 126.508 146.797 128.242 146.297 129.742C145.797 131.227 145.102 132.469 144.211 133.469C143.32 134.469 142.281 135.219 141.094 135.719C139.906 136.219 138.625 136.469 137.25 136.469C135.875 136.469 134.594 136.219 133.406 135.719C132.219 135.219 131.172 134.469 130.266 133.469C129.375 132.469 128.68 131.227 128.18 129.742C127.68 128.242 127.43 126.508 127.43 124.539ZM131.578 122.125V124.539C131.578 125.93 131.719 127.148 132 128.195C132.281 129.242 132.68 130.117 133.196 130.82C133.711 131.523 134.313 132.055 135 132.414C135.688 132.758 136.438 132.93 137.25 132.93C138.188 132.93 139.008 132.758 139.711 132.414C140.43 132.055 141.024 131.523 141.492 130.82C141.961 130.117 142.313 129.242 142.547 128.195C142.781 127.148 142.899 125.93 142.899 124.539V122.125C142.899 120.734 142.758 119.523 142.477 118.492C142.196 117.445 141.797 116.57 141.281 115.867C140.766 115.148 140.156 114.617 139.453 114.273C138.766 113.914 138.016 113.734 137.203 113.734C136.406 113.734 135.664 113.914 134.977 114.273C134.289 114.617 133.688 115.148 133.172 115.867C132.672 116.57 132.281 117.445 132 118.492C131.719 119.523 131.578 120.734 131.578 122.125ZM164.696 129.508C164.696 128.867 164.539 128.305 164.227 127.82C163.914 127.336 163.399 126.867 162.68 126.414C161.977 125.961 161.024 125.477 159.82 124.961C158.649 124.477 157.594 124 156.656 123.531C155.735 123.047 154.953 122.523 154.313 121.961C153.672 121.398 153.18 120.75 152.836 120.016C152.508 119.266 152.344 118.383 152.344 117.367C152.344 116.352 152.531 115.414 152.906 114.555C153.297 113.68 153.844 112.914 154.547 112.258C155.25 111.602 156.094 111.094 157.078 110.734C158.063 110.359 159.164 110.172 160.383 110.172C162.117 110.172 163.594 110.508 164.813 111.18C166.031 111.852 166.961 112.773 167.602 113.945C168.258 115.102 168.586 116.406 168.586 117.859H164.461C164.461 117.156 164.305 116.492 163.992 115.867C163.68 115.242 163.219 114.734 162.61 114.344C162 113.937 161.258 113.734 160.383 113.734C159.461 113.734 158.711 113.898 158.133 114.227C157.555 114.555 157.133 114.984 156.867 115.516C156.617 116.031 156.492 116.602 156.492 117.227C156.492 117.695 156.555 118.102 156.68 118.445C156.82 118.773 157.055 119.086 157.383 119.383C157.711 119.664 158.156 119.961 158.719 120.273C159.297 120.57 160.031 120.914 160.922 121.305C162.641 121.977 164.086 122.656 165.258 123.344C166.43 124.031 167.32 124.836 167.93 125.758C168.539 126.68 168.844 127.82 168.844 129.18C168.844 130.289 168.641 131.297 168.235 132.203C167.844 133.094 167.281 133.859 166.547 134.5C165.813 135.141 164.93 135.633 163.899 135.977C162.883 136.305 161.742 136.469 160.477 136.469C158.57 136.469 156.953 136.094 155.625 135.344C154.313 134.578 153.313 133.586 152.625 132.367C151.953 131.133 151.617 129.813 151.617 128.406H155.766C155.813 129.594 156.078 130.516 156.563 131.172C157.063 131.828 157.664 132.281 158.367 132.531C159.07 132.781 159.774 132.906 160.477 132.906C161.399 132.906 162.172 132.773 162.797 132.508C163.422 132.227 163.891 131.828 164.203 131.312C164.531 130.797 164.696 130.195 164.696 129.508ZM194.367 136.469C192.852 136.469 191.485 136.242 190.266 135.789C189.047 135.336 188.008 134.648 187.149 133.727C186.289 132.789 185.633 131.609 185.18 130.188C184.727 128.766 184.5 127.086 184.5 125.148V122.289C184.5 120.055 184.758 118.164 185.274 116.617C185.805 115.07 186.516 113.828 187.406 112.891C188.297 111.938 189.305 111.25 190.43 110.828C191.555 110.391 192.711 110.172 193.899 110.172C195.492 110.172 196.852 110.43 197.977 110.945C199.102 111.461 200.016 112.227 200.719 113.242C201.422 114.258 201.938 115.508 202.266 116.992C202.61 118.477 202.781 120.188 202.781 122.125V124.539H186.938V121H198.633V120.414C198.57 119.102 198.391 117.945 198.094 116.945C197.813 115.945 197.344 115.164 196.688 114.602C196.031 114.023 195.102 113.734 193.899 113.734C193.133 113.734 192.422 113.867 191.766 114.133C191.125 114.383 190.57 114.828 190.102 115.469C189.649 116.094 189.289 116.961 189.024 118.07C188.774 119.18 188.649 120.586 188.649 122.289V125.148C188.649 126.508 188.774 127.68 189.024 128.664C189.289 129.633 189.672 130.437 190.172 131.078C190.688 131.703 191.313 132.172 192.047 132.484C192.797 132.781 193.649 132.93 194.602 132.93C195.992 132.93 197.141 132.664 198.047 132.133C198.953 131.586 199.742 130.891 200.414 130.047L202.594 132.648C202.141 133.289 201.547 133.906 200.813 134.5C200.094 135.078 199.203 135.555 198.141 135.93C197.094 136.289 195.836 136.469 194.367 136.469ZM212.25 100V136H208.125V100H212.25ZM227.883 136.469C226.367 136.469 225 136.242 223.781 135.789C222.563 135.336 221.524 134.648 220.664 133.727C219.805 132.789 219.149 131.609 218.696 130.188C218.242 128.766 218.016 127.086 218.016 125.148V122.289C218.016 120.055 218.274 118.164 218.789 116.617C219.32 115.07 220.031 113.828 220.922 112.891C221.813 111.938 222.82 111.25 223.946 110.828C225.07 110.391 226.227 110.172 227.414 110.172C229.008 110.172 230.367 110.43 231.492 110.945C232.617 111.461 233.531 112.227 234.235 113.242C234.938 114.258 235.453 115.508 235.781 116.992C236.125 118.477 236.297 120.188 236.297 122.125V124.539H220.453V121H232.149V120.414C232.086 119.102 231.906 117.945 231.61 116.945C231.328 115.945 230.86 115.164 230.203 114.602C229.547 114.023 228.617 113.734 227.414 113.734C226.649 113.734 225.938 113.867 225.281 114.133C224.641 114.383 224.086 114.828 223.617 115.469C223.164 116.094 222.805 116.961 222.539 118.07C222.289 119.18 222.164 120.586 222.164 122.289V125.148C222.164 126.508 222.289 127.68 222.539 128.664C222.805 129.633 223.188 130.437 223.688 131.078C224.203 131.703 224.828 132.172 225.563 132.484C226.313 132.781 227.164 132.93 228.117 132.93C229.508 132.93 230.656 132.664 231.563 132.133C232.469 131.586 233.258 130.891 233.93 130.047L236.11 132.648C235.656 133.289 235.063 133.906 234.328 134.5C233.61 135.078 232.719 135.555 231.656 135.93C230.61 136.289 229.352 136.469 227.883 136.469ZM250.102 132.93C250.93 132.93 251.68 132.766 252.352 132.438C253.039 132.094 253.602 131.562 254.039 130.844C254.477 130.109 254.727 129.156 254.789 127.984H258.68C258.617 129.672 258.188 131.156 257.391 132.438C256.61 133.703 255.578 134.695 254.297 135.414C253.031 136.117 251.633 136.469 250.102 136.469C248.461 136.469 247.031 136.203 245.813 135.672C244.61 135.141 243.61 134.375 242.813 133.375C242.031 132.359 241.446 131.133 241.055 129.695C240.664 128.242 240.469 126.594 240.469 124.75V121.891C240.469 120.047 240.664 118.406 241.055 116.969C241.446 115.516 242.031 114.289 242.813 113.289C243.61 112.273 244.61 111.5 245.813 110.969C247.031 110.437 248.461 110.172 250.102 110.172C251.82 110.172 253.305 110.539 254.555 111.273C255.82 111.992 256.805 113.039 257.508 114.414C258.227 115.773 258.617 117.422 258.68 119.359H254.789C254.727 118.109 254.5 117.07 254.11 116.242C253.719 115.398 253.188 114.773 252.516 114.367C251.844 113.945 251.039 113.734 250.102 113.734C249.008 113.734 248.102 113.93 247.383 114.32C246.68 114.695 246.125 115.242 245.719 115.961C245.313 116.68 245.024 117.539 244.852 118.539C244.696 119.539 244.617 120.656 244.617 121.891V124.75C244.617 125.984 244.696 127.109 244.852 128.125C245.024 129.125 245.305 129.984 245.696 130.703C246.102 131.422 246.664 131.977 247.383 132.367C248.102 132.742 249.008 132.93 250.102 132.93ZM272.742 110.641V113.969H260.906V110.641H272.742ZM264.774 104.477H268.922V129.719C268.922 130.578 269.024 131.227 269.227 131.664C269.446 132.102 269.719 132.391 270.047 132.531C270.375 132.672 270.727 132.742 271.102 132.742C271.383 132.742 271.696 132.711 272.039 132.648C272.383 132.57 272.617 132.508 272.742 132.461L272.719 136C272.438 136.109 272.063 136.211 271.594 136.305C271.125 136.414 270.531 136.469 269.813 136.469C268.922 136.469 268.094 136.258 267.328 135.836C266.563 135.414 265.946 134.711 265.477 133.727C265.008 132.727 264.774 131.383 264.774 129.695V104.477ZM281.836 114.625V136H277.688V110.641H281.696L281.836 114.625ZM288.141 110.5L288.164 114.531C287.82 114.453 287.508 114.406 287.227 114.391C286.961 114.359 286.649 114.344 286.289 114.344C285.508 114.344 284.82 114.5 284.227 114.812C283.649 115.125 283.149 115.562 282.727 116.125C282.305 116.688 281.969 117.359 281.719 118.141C281.469 118.906 281.297 119.75 281.203 120.672L280.125 121.375C280.125 119.844 280.242 118.406 280.477 117.062C280.727 115.719 281.11 114.531 281.625 113.5C282.141 112.453 282.797 111.641 283.594 111.062C284.406 110.469 285.375 110.172 286.5 110.172C286.75 110.172 287.055 110.211 287.414 110.289C287.789 110.352 288.031 110.422 288.141 110.5ZM290.977 124.539V122.125C290.977 120.156 291.227 118.43 291.727 116.945C292.227 115.445 292.922 114.195 293.813 113.195C294.703 112.195 295.742 111.445 296.93 110.945C298.117 110.43 299.391 110.172 300.75 110.172C302.141 110.172 303.43 110.43 304.617 110.945C305.805 111.445 306.844 112.195 307.735 113.195C308.641 114.195 309.344 115.445 309.844 116.945C310.344 118.43 310.594 120.156 310.594 122.125V124.539C310.594 126.508 310.344 128.242 309.844 129.742C309.344 131.227 308.649 132.469 307.758 133.469C306.867 134.469 305.828 135.219 304.641 135.719C303.453 136.219 302.172 136.469 300.797 136.469C299.422 136.469 298.141 136.219 296.953 135.719C295.766 135.219 294.719 134.469 293.813 133.469C292.922 132.469 292.227 131.227 291.727 129.742C291.227 128.242 290.977 126.508 290.977 124.539ZM295.125 122.125V124.539C295.125 125.93 295.266 127.148 295.547 128.195C295.828 129.242 296.227 130.117 296.742 130.82C297.258 131.523 297.86 132.055 298.547 132.414C299.235 132.758 299.985 132.93 300.797 132.93C301.735 132.93 302.555 132.758 303.258 132.414C303.977 132.055 304.57 131.523 305.039 130.82C305.508 130.117 305.86 129.242 306.094 128.195C306.328 127.148 306.446 125.93 306.446 124.539V122.125C306.446 120.734 306.305 119.523 306.024 118.492C305.742 117.445 305.344 116.57 304.828 115.867C304.313 115.148 303.703 114.617 303 114.273C302.313 113.914 301.563 113.734 300.75 113.734C299.953 113.734 299.211 113.914 298.524 114.273C297.836 114.617 297.235 115.148 296.719 115.867C296.219 116.57 295.828 117.445 295.547 118.492C295.266 119.523 295.125 120.734 295.125 122.125ZM320.086 115.68V136H315.961V110.641H319.852L320.086 115.68ZM319.242 122.359L317.32 122.289C317.305 120.555 317.477 118.953 317.836 117.484C318.196 116 318.735 114.711 319.453 113.617C320.188 112.523 321.102 111.68 322.196 111.086C323.305 110.477 324.594 110.172 326.063 110.172C327.031 110.172 327.93 110.344 328.758 110.688C329.602 111.016 330.336 111.539 330.961 112.258C331.586 112.977 332.07 113.898 332.414 115.023C332.774 116.148 332.953 117.508 332.953 119.102V136H328.805V119.312C328.805 117.984 328.625 116.922 328.266 116.125C327.922 115.328 327.43 114.75 326.789 114.391C326.149 114.016 325.383 113.828 324.492 113.828C323.477 113.828 322.625 114.055 321.938 114.508C321.266 114.961 320.727 115.586 320.32 116.383C319.93 117.18 319.649 118.094 319.477 119.125C319.32 120.141 319.242 121.219 319.242 122.359ZM332.906 119.969L330.141 120.859C330.125 119.469 330.297 118.133 330.656 116.852C331.016 115.57 331.547 114.43 332.25 113.43C332.969 112.43 333.86 111.641 334.922 111.062C335.985 110.469 337.219 110.172 338.625 110.172C339.781 110.172 340.805 110.352 341.696 110.711C342.586 111.07 343.336 111.625 343.946 112.375C344.57 113.109 345.039 114.055 345.352 115.211C345.664 116.367 345.82 117.742 345.82 119.336V136H341.672V119.289C341.672 117.867 341.492 116.766 341.133 115.984C340.789 115.187 340.297 114.633 339.656 114.32C339.016 113.992 338.25 113.828 337.36 113.828C336.641 113.828 336 113.992 335.438 114.32C334.891 114.648 334.43 115.102 334.055 115.68C333.68 116.242 333.391 116.891 333.188 117.625C333 118.359 332.906 119.141 332.906 119.969ZM361.149 136.469C359.633 136.469 358.266 136.242 357.047 135.789C355.828 135.336 354.789 134.648 353.93 133.727C353.07 132.789 352.414 131.609 351.961 130.188C351.508 128.766 351.281 127.086 351.281 125.148V122.289C351.281 120.055 351.539 118.164 352.055 116.617C352.586 115.07 353.297 113.828 354.188 112.891C355.078 111.938 356.086 111.25 357.211 110.828C358.336 110.391 359.492 110.172 360.68 110.172C362.274 110.172 363.633 110.43 364.758 110.945C365.883 111.461 366.797 112.227 367.5 113.242C368.203 114.258 368.719 115.508 369.047 116.992C369.391 118.477 369.563 120.188 369.563 122.125V124.539H353.719V121H365.414V120.414C365.352 119.102 365.172 117.945 364.875 116.945C364.594 115.945 364.125 115.164 363.469 114.602C362.813 114.023 361.883 113.734 360.68 113.734C359.914 113.734 359.203 113.867 358.547 114.133C357.906 114.383 357.352 114.828 356.883 115.469C356.43 116.094 356.07 116.961 355.805 118.07C355.555 119.18 355.43 120.586 355.43 122.289V125.148C355.43 126.508 355.555 127.68 355.805 128.664C356.07 129.633 356.453 130.437 356.953 131.078C357.469 131.703 358.094 132.172 358.828 132.484C359.578 132.781 360.43 132.93 361.383 132.93C362.774 132.93 363.922 132.664 364.828 132.133C365.735 131.586 366.524 130.891 367.196 130.047L369.375 132.648C368.922 133.289 368.328 133.906 367.594 134.5C366.875 135.078 365.985 135.555 364.922 135.93C363.875 136.289 362.617 136.469 361.149 136.469ZM383.367 132.93C384.196 132.93 384.946 132.766 385.617 132.438C386.305 132.094 386.867 131.562 387.305 130.844C387.742 130.109 387.992 129.156 388.055 127.984H391.946C391.883 129.672 391.453 131.156 390.656 132.438C389.875 133.703 388.844 134.695 387.563 135.414C386.297 136.117 384.899 136.469 383.367 136.469C381.727 136.469 380.297 136.203 379.078 135.672C377.875 135.141 376.875 134.375 376.078 133.375C375.297 132.359 374.711 131.133 374.32 129.695C373.93 128.242 373.735 126.594 373.735 124.75V121.891C373.735 120.047 373.93 118.406 374.32 116.969C374.711 115.516 375.297 114.289 376.078 113.289C376.875 112.273 377.875 111.5 379.078 110.969C380.297 110.437 381.727 110.172 383.367 110.172C385.086 110.172 386.57 110.539 387.82 111.273C389.086 111.992 390.07 113.039 390.774 114.414C391.492 115.773 391.883 117.422 391.946 119.359H388.055C387.992 118.109 387.766 117.07 387.375 116.242C386.985 115.398 386.453 114.773 385.781 114.367C385.11 113.945 384.305 113.734 383.367 113.734C382.274 113.734 381.367 113.93 380.649 114.32C379.946 114.695 379.391 115.242 378.985 115.961C378.578 116.68 378.289 117.539 378.117 118.539C377.961 119.539 377.883 120.656 377.883 121.891V124.75C377.883 125.984 377.961 127.109 378.117 128.125C378.289 129.125 378.57 129.984 378.961 130.703C379.367 131.422 379.93 131.977 380.649 132.367C381.367 132.742 382.274 132.93 383.367 132.93ZM409.172 131.664V117.906C409.172 116.906 409.016 116.102 408.703 115.492C408.406 114.883 407.953 114.438 407.344 114.156C406.75 113.875 406 113.734 405.094 113.734C404.219 113.734 403.461 113.914 402.82 114.273C402.196 114.633 401.711 115.109 401.367 115.703C401.039 116.297 400.875 116.953 400.875 117.672H396.727C396.727 116.766 396.922 115.867 397.313 114.977C397.719 114.086 398.297 113.281 399.047 112.562C399.797 111.828 400.696 111.25 401.742 110.828C402.805 110.391 403.992 110.172 405.305 110.172C406.867 110.172 408.25 110.43 409.453 110.945C410.656 111.445 411.602 112.266 412.289 113.406C412.977 114.547 413.32 116.063 413.32 117.953V130.469C413.32 131.312 413.383 132.211 413.508 133.164C413.649 134.117 413.844 134.938 414.094 135.625V136H409.805C409.602 135.5 409.446 134.836 409.336 134.008C409.227 133.164 409.172 132.383 409.172 131.664ZM409.828 120.625L409.875 123.672H406.992C406.008 123.672 405.11 123.781 404.297 124C403.5 124.219 402.813 124.539 402.235 124.961C401.656 125.367 401.211 125.875 400.899 126.484C400.602 127.094 400.453 127.789 400.453 128.57C400.453 129.586 400.594 130.398 400.875 131.008C401.156 131.602 401.578 132.031 402.141 132.297C402.703 132.563 403.414 132.695 404.274 132.695C405.32 132.695 406.242 132.453 407.039 131.969C407.836 131.484 408.453 130.898 408.891 130.211C409.344 129.523 409.555 128.883 409.524 128.289L410.438 130.234C410.375 130.844 410.172 131.508 409.828 132.227C409.5 132.93 409.039 133.609 408.446 134.266C407.852 134.906 407.149 135.438 406.336 135.859C405.539 136.266 404.641 136.469 403.641 136.469C402.172 136.469 400.883 136.188 399.774 135.625C398.68 135.062 397.828 134.234 397.219 133.141C396.61 132.047 396.305 130.695 396.305 129.086C396.305 127.867 396.516 126.742 396.938 125.711C397.36 124.68 397.985 123.789 398.813 123.039C399.641 122.273 400.68 121.68 401.93 121.258C403.196 120.836 404.656 120.625 406.313 120.625H409.828ZM403.172 106.891L407.719 100H412.946L406.664 106.891H403.172ZM423.914 116.055V136H419.766V110.641H423.68L423.914 116.055ZM422.906 122.359L421.219 122.289C421.203 120.555 421.399 118.953 421.805 117.484C422.227 116 422.82 114.711 423.586 113.617C424.367 112.523 425.297 111.68 426.375 111.086C427.453 110.477 428.649 110.172 429.961 110.172C430.992 110.172 431.93 110.344 432.774 110.688C433.617 111.016 434.336 111.547 434.93 112.281C435.524 113.016 435.977 113.969 436.289 115.141C436.617 116.297 436.781 117.711 436.781 119.383V136H432.633V119.336C432.633 118.008 432.485 116.945 432.188 116.148C431.906 115.336 431.469 114.75 430.875 114.391C430.297 114.016 429.563 113.828 428.672 113.828C427.86 113.828 427.102 114.055 426.399 114.508C425.696 114.961 425.078 115.586 424.547 116.383C424.031 117.18 423.625 118.094 423.328 119.125C423.047 120.141 422.906 121.219 422.906 122.359ZM447.469 110.641V136H443.344V110.641H447.469ZM443.11 103.914C443.11 103.211 443.305 102.617 443.696 102.133C444.086 101.648 444.672 101.406 445.453 101.406C446.235 101.406 446.82 101.648 447.211 102.133C447.617 102.617 447.82 103.211 447.82 103.914C447.82 104.586 447.617 105.164 447.211 105.648C446.82 106.117 446.235 106.352 445.453 106.352C444.672 106.352 444.086 106.117 443.696 105.648C443.305 105.164 443.11 104.586 443.11 103.914ZM462.82 132.93C463.649 132.93 464.399 132.766 465.07 132.438C465.758 132.094 466.32 131.562 466.758 130.844C467.196 130.109 467.446 129.156 467.508 127.984H471.399C471.336 129.672 470.906 131.156 470.11 132.438C469.328 133.703 468.297 134.695 467.016 135.414C465.75 136.117 464.352 136.469 462.82 136.469C461.18 136.469 459.75 136.203 458.531 135.672C457.328 135.141 456.328 134.375 455.531 133.375C454.75 132.359 454.164 131.133 453.774 129.695C453.383 128.242 453.188 126.594 453.188 124.75V121.891C453.188 120.047 453.383 118.406 453.774 116.969C454.164 115.516 454.75 114.289 455.531 113.289C456.328 112.273 457.328 111.5 458.531 110.969C459.75 110.437 461.18 110.172 462.82 110.172C464.539 110.172 466.024 110.539 467.274 111.273C468.539 111.992 469.524 113.039 470.227 114.414C470.946 115.773 471.336 117.422 471.399 119.359H467.508C467.446 118.109 467.219 117.07 466.828 116.242C466.438 115.398 465.906 114.773 465.235 114.367C464.563 113.945 463.758 113.734 462.82 113.734C461.727 113.734 460.82 113.93 460.102 114.32C459.399 114.695 458.844 115.242 458.438 115.961C458.031 116.68 457.742 117.539 457.57 118.539C457.414 119.539 457.336 120.656 457.336 121.891V124.75C457.336 125.984 457.414 127.109 457.57 128.125C457.742 129.125 458.024 129.984 458.414 130.703C458.82 131.422 459.383 131.977 460.102 132.367C460.82 132.742 461.727 132.93 462.82 132.93ZM475.336 124.539V122.125C475.336 120.156 475.586 118.43 476.086 116.945C476.586 115.445 477.281 114.195 478.172 113.195C479.063 112.195 480.102 111.445 481.289 110.945C482.477 110.43 483.75 110.172 485.11 110.172C486.5 110.172 487.789 110.43 488.977 110.945C490.164 111.445 491.203 112.195 492.094 113.195C493 114.195 493.703 115.445 494.203 116.945C494.703 118.43 494.953 120.156 494.953 122.125V124.539C494.953 126.508 494.703 128.242 494.203 129.742C493.703 131.227 493.008 132.469 492.117 133.469C491.227 134.469 490.188 135.219 489 135.719C487.813 136.219 486.531 136.469 485.156 136.469C483.781 136.469 482.5 136.219 481.313 135.719C480.125 135.219 479.078 134.469 478.172 133.469C477.281 132.469 476.586 131.227 476.086 129.742C475.586 128.242 475.336 126.508 475.336 124.539ZM479.485 122.125V124.539C479.485 125.93 479.625 127.148 479.906 128.195C480.188 129.242 480.586 130.117 481.102 130.82C481.617 131.523 482.219 132.055 482.906 132.414C483.594 132.758 484.344 132.93 485.156 132.93C486.094 132.93 486.914 132.758 487.617 132.414C488.336 132.055 488.93 131.523 489.399 130.82C489.867 130.117 490.219 129.242 490.453 128.195C490.688 127.148 490.805 125.93 490.805 124.539V122.125C490.805 120.734 490.664 119.523 490.383 118.492C490.102 117.445 489.703 116.57 489.188 115.867C488.672 115.148 488.063 114.617 487.36 114.273C486.672 113.914 485.922 113.734 485.11 113.734C484.313 113.734 483.57 113.914 482.883 114.273C482.196 114.617 481.594 115.148 481.078 115.867C480.578 116.57 480.188 117.445 479.906 118.492C479.625 119.523 479.485 120.734 479.485 122.125ZM512.602 129.508C512.602 128.867 512.446 128.305 512.133 127.82C511.82 127.336 511.305 126.867 510.586 126.414C509.883 125.961 508.93 125.477 507.727 124.961C506.555 124.477 505.5 124 504.563 123.531C503.641 123.047 502.86 122.523 502.219 121.961C501.578 121.398 501.086 120.75 500.742 120.016C500.414 119.266 500.25 118.383 500.25 117.367C500.25 116.352 500.438 115.414 500.813 114.555C501.203 113.68 501.75 112.914 502.453 112.258C503.156 111.602 504 111.094 504.985 110.734C505.969 110.359 507.07 110.172 508.289 110.172C510.024 110.172 511.5 110.508 512.719 111.18C513.938 111.852 514.867 112.773 515.508 113.945C516.164 115.102 516.492 116.406 516.492 117.859H512.367C512.367 117.156 512.211 116.492 511.899 115.867C511.586 115.242 511.125 114.734 510.516 114.344C509.906 113.937 509.164 113.734 508.289 113.734C507.367 113.734 506.617 113.898 506.039 114.227C505.461 114.555 505.039 114.984 504.774 115.516C504.524 116.031 504.399 116.602 504.399 117.227C504.399 117.695 504.461 118.102 504.586 118.445C504.727 118.773 504.961 119.086 505.289 119.383C505.617 119.664 506.063 119.961 506.625 120.273C507.203 120.57 507.938 120.914 508.828 121.305C510.547 121.977 511.992 122.656 513.164 123.344C514.336 124.031 515.227 124.836 515.836 125.758C516.446 126.68 516.75 127.82 516.75 129.18C516.75 130.289 516.547 131.297 516.141 132.203C515.75 133.094 515.188 133.859 514.453 134.5C513.719 135.141 512.836 135.633 511.805 135.977C510.789 136.305 509.649 136.469 508.383 136.469C506.477 136.469 504.86 136.094 503.531 135.344C502.219 134.578 501.219 133.586 500.531 132.367C499.86 131.133 499.524 129.813 499.524 128.406H503.672C503.719 129.594 503.985 130.516 504.469 131.172C504.969 131.828 505.57 132.281 506.274 132.531C506.977 132.781 507.68 132.906 508.383 132.906C509.305 132.906 510.078 132.773 510.703 132.508C511.328 132.227 511.797 131.828 512.11 131.312C512.438 130.797 512.602 130.195 512.602 129.508Z" fill="white"/>
<path d="M62.875 1.5V86.8125H43.9375L8.3125 32.8125V86.8125H0V1.5H15.6875L54.5625 59.8125V1.5H62.875ZM112 0C136.833 0 149.25 14.7083 149.25 44.125C149.25 73.5417 136.604 88.25 111.313 88.25C86.0208 88.25 73.375 73.2083 73.375 43.125C73.375 14.375 86.25 0 112 0ZM111.313 6.8125C106.646 6.8125 103.479 9.39583 101.813 14.5625C100.187 19.6875 99.375 29.5417 99.375 44.125C99.375 58.7083 100.187 68.5833 101.813 73.75C103.479 78.875 106.646 81.4375 111.313 81.4375C115.979 81.4375 119.125 78.875 120.75 73.75C122.417 68.5833 123.25 58.7083 123.25 44.125C123.25 29.5833 122.417 19.7292 120.75 14.5625C119.125 9.39583 115.979 6.8125 111.313 6.8125ZM160.25 86.8125V1.5H196.937C206.479 1.5 214.104 3.52083 219.813 7.5625C225.521 11.5625 228.375 16.9375 228.375 23.6875C228.375 34.0208 222.25 40.75 210 43.875C216.292 46.2083 220.354 48.7708 222.187 51.5625C224.063 54.3542 225.333 59.7708 226 67.8125C226.792 77.3958 228.396 83.7292 230.813 86.8125H203.937C202.229 82.8542 201.375 77.9167 201.375 72L201.25 66.9375L201.125 60.5625C201.125 50.7292 197.167 45.8125 189.25 45.8125H185V86.8125H160.25ZM185 38.75H190C199.375 38.75 204.063 33.8542 204.063 24.0625C204.063 14.2708 199.375 9.375 190 9.375H185V38.75ZM301 1.5V10.0625H280.063V86.8125H253.813V10.0625H232.75V1.5H301ZM332.187 44.375V86.8125H307.437V1.5H332.187V35.8125H352.375V1.5H377.125V86.8125H352.375V44.375H332.187ZM485.5 1.5V10.0625H454.937V35.875H480.625V44.4375H454.937V78.25H490.687V86.8125H430.187V1.5H485.5ZM560.875 1.5V86.8125H541.937L506.313 32.8125V86.8125H498V1.5H513.687L552.563 59.8125V1.5H560.875ZM630.375 1.5V10.0625H599.813V35.875H625.5V44.4375H599.813V78.25H635.563V86.8125H575.063V1.5H630.375ZM643.375 86.8125V1.5H680.063C689.604 1.5 697.229 3.52083 702.937 7.5625C708.646 11.5625 711.5 16.9375 711.5 23.6875C711.5 34.0208 705.375 40.75 693.125 43.875C699.417 46.2083 703.479 48.7708 705.313 51.5625C707.187 54.3542 708.458 59.7708 709.125 67.8125C709.917 77.3958 711.521 83.7292 713.937 86.8125H687.063C685.354 82.8542 684.5 77.9167 684.5 72L684.375 66.9375L684.25 60.5625C684.25 50.7292 680.292 45.8125 672.375 45.8125H668.125V86.8125H643.375ZM668.125 38.75H673.125C682.5 38.75 687.187 33.8542 687.187 24.0625C687.187 14.2708 682.5 9.375 673.125 9.375H668.125V38.75ZM757.625 40.75H792.75V86.8125H784.875L782.187 80.9375C775.313 85.8125 768.042 88.25 760.375 88.25C747.75 88.25 737.937 84.4792 730.937 76.9375C723.979 69.3542 720.5 58.6875 720.5 44.9375C720.5 31.5625 724.187 20.75 731.563 12.5C738.979 4.20833 748.667 0.0625 760.625 0.0625C776.375 0.0625 785.958 8.10417 789.375 24.1875L777.75 29.5V27.4375L777.563 22.8125C776.771 12.7708 772.125 7.75 763.625 7.75C757.375 7.75 753.104 10.4167 750.813 15.75C748.521 21.0833 747.375 31.0208 747.375 45.5625C747.375 59.1458 748.292 68.375 750.125 73.25C752 78.125 755.542 80.5625 760.75 80.5625C766.875 80.5625 769.937 77.1458 769.937 70.3125V49.3125H757.625V40.75ZM864.625 1.5L843.813 55.3125V86.8125H819.063V55.3125L796.063 1.5H821.75L839.125 42.625L854.75 1.5H864.625Z" fill="white"/>
</svg>
