<svg width="221" height="41" viewBox="0 0 221 41" fill="none" xmlns="http://www.w3.org/2000/svg">
<path d="M20.8083 40.959C31.8543 40.959 40.8083 32.005 40.8083 20.959V6.95898C40.8083 5.36769 40.1762 3.84156 39.051 2.71634C37.9258 1.59113 36.3996 0.958984 34.8083 0.958984H21.8083V9.73298C21.8083 11.735 21.9304 13.809 22.9804 15.513C23.732 16.7342 24.7376 17.7794 25.9288 18.5778C27.1201 19.3761 28.4691 19.9089 29.8843 20.14L30.2673 20.202C30.4252 20.256 30.5623 20.3579 30.6594 20.4937C30.7564 20.6294 30.8086 20.7921 30.8086 20.959C30.8086 21.1259 30.7564 21.2885 30.6594 21.4243C30.5623 21.56 30.4252 21.662 30.2673 21.716L29.8843 21.778C27.8165 22.1158 25.907 23.0945 24.4255 24.5761C22.9439 26.0577 21.9651 27.9672 21.6273 30.035L21.5653 30.418C21.5114 30.5759 21.4094 30.713 21.2736 30.81C21.1379 30.9071 20.9752 30.9592 20.8083 30.9592C20.6415 30.9592 20.4788 30.9071 20.3431 30.81C20.2073 30.713 20.1053 30.5759 20.0513 30.418L19.9893 30.035C19.7582 28.6197 19.2254 27.2707 18.4271 26.0795C17.6287 24.8883 16.5835 23.8827 15.3623 23.131C13.6583 22.081 11.5843 21.959 9.58235 21.959H0.83235C1.35535 32.54 10.0983 40.959 20.8083 40.959Z" fill="white"/>
<path d="M0.80835 19.959H9.58235C11.5843 19.959 13.6583 19.837 15.3623 18.787C16.6944 17.9663 17.8156 16.845 18.6363 15.513C19.6863 13.809 19.8083 11.735 19.8083 9.73298V0.958984H6.80835C5.21705 0.958984 3.69093 1.59113 2.56571 2.71634C1.44049 3.84156 0.80835 5.36769 0.80835 6.95898V19.959ZM47.2634 2.95898C47.2634 3.48942 47.0526 3.99813 46.6776 4.3732C46.3025 4.74827 45.7938 4.95898 45.2634 4.95898C44.7329 4.95898 44.2242 4.74827 43.8491 4.3732C43.4741 3.99813 43.2634 3.48942 43.2634 2.95898C43.2634 2.42855 43.4741 1.91984 43.8491 1.54477C44.2242 1.1697 44.7329 0.958984 45.2634 0.958984C45.7938 0.958984 46.3025 1.1697 46.6776 1.54477C47.0526 1.91984 47.2634 2.42855 47.2634 2.95898ZM212.519 13.063C218.11 13.063 220.808 16.968 220.808 21.491V29.986H214.957V22.499C214.957 20.449 214.209 18.757 212.064 18.757C209.919 18.757 209.204 20.449 209.204 22.499V29.985H203.353V22.499C203.353 20.449 202.638 18.757 200.492 18.757C198.347 18.757 197.599 20.449 197.599 22.499V29.985H191.749V21.49C191.749 16.967 194.446 13.062 200.037 13.062C203.093 13.062 205.303 14.266 206.311 16.251C207.383 14.266 209.724 13.061 212.519 13.061V13.063ZM181.235 24.779C183.12 24.779 183.933 23.054 183.933 21.003V13.713H189.783V21.719C189.783 26.503 186.988 30.474 181.235 30.474C175.481 30.474 172.686 26.504 172.686 21.719V13.713H178.537V21.003C178.537 23.053 179.349 24.779 181.235 24.779ZM164.083 30.506C160.41 30.506 158.037 29.237 156.639 26.764L160.865 24.388C161.45 25.429 162.327 25.95 163.79 25.95C164.993 25.95 165.545 25.527 165.545 25.006C165.545 23.021 156.964 25.039 156.964 18.726C156.964 15.666 159.564 13.193 163.985 13.193C167.853 13.193 169.966 15.08 170.909 16.903L166.683 19.311C166.326 18.335 165.22 17.749 164.115 17.749C163.27 17.749 162.815 18.107 162.815 18.595C162.815 20.613 171.396 18.758 171.396 24.876C171.396 28.293 168.048 30.506 164.083 30.506ZM143.641 37.471H137.79V21.817C137.79 16.837 141.528 13.225 146.729 13.225C151.8 13.225 155.668 17.098 155.668 21.817C155.668 27.024 152.222 30.474 147.054 30.474C145.851 30.474 144.649 30.116 143.641 29.562V37.471ZM146.729 24.974C148.582 24.974 149.817 23.542 149.817 21.849C149.817 20.125 148.582 18.725 146.729 18.725C144.876 18.725 143.641 20.125 143.641 21.85C143.641 23.542 144.876 24.974 146.729 24.974ZM131.929 11.989C130.011 11.989 128.419 10.394 128.419 8.47398C128.419 6.55398 130.011 4.95898 131.929 4.95898C133.847 4.95898 135.44 6.55398 135.44 8.47398C135.44 10.394 133.847 11.989 131.929 11.989ZM129.004 13.713H134.855V29.986H129.004V13.713ZM117.778 30.474C112.707 30.474 108.839 26.569 108.839 21.817C108.839 17.098 112.707 13.193 117.778 13.193C122.849 13.193 126.717 17.098 126.717 21.817C126.717 26.569 122.849 30.474 117.778 30.474ZM117.778 24.974C119.631 24.974 120.866 23.542 120.866 21.849C120.866 20.125 119.631 18.693 117.778 18.693C115.925 18.693 114.69 20.125 114.69 21.849C114.69 23.542 115.925 24.974 117.778 24.974ZM97.7914 37.959C93.7614 37.959 90.8353 36.169 89.3403 32.979L94.1833 30.376C94.7033 31.483 95.6784 32.622 97.6934 32.622C99.8074 32.622 101.204 31.287 101.367 28.944C100.587 29.628 99.3514 30.148 97.4994 30.148C92.9804 30.148 89.3393 26.666 89.3393 21.784C89.3393 17.066 93.2084 13.225 98.2794 13.225C103.48 13.225 107.218 16.838 107.218 21.817V28.261C107.218 34.119 103.154 37.959 97.7914 37.959ZM98.1814 24.649C99.9364 24.649 101.269 23.444 101.269 21.654C101.269 19.897 99.9374 18.725 98.1814 18.725C96.4584 18.725 95.0934 19.897 95.0934 21.655C95.0934 23.445 96.4584 24.648 98.1814 24.648V24.649ZM79.4154 30.474C74.3444 30.474 70.4753 26.569 70.4753 21.817C70.4753 17.098 74.3444 13.193 79.4154 13.193C84.4854 13.193 88.3543 17.098 88.3543 21.817C88.3543 26.569 84.4864 30.474 79.4154 30.474ZM79.4154 24.974C81.2684 24.974 82.5033 23.542 82.5033 21.849C82.5033 20.125 81.2684 18.693 79.4154 18.693C77.5624 18.693 76.3273 20.125 76.3273 21.849C76.3273 23.542 77.5624 24.974 79.4154 24.974ZM59.8214 8.01898V24.453H69.5083V29.986H59.0084C55.3034 29.986 53.8083 28.033 53.8083 24.941V8.01898H59.8214Z" fill="white"/>
</svg>
